<?xml version="1.0" encoding="UTF-8"?>
<svg xmlns="http://www.w3.org/2000/svg" width="256" height="256" viewBox="0 0 256 256">
  <title>Repair Application</title>
  <!-- Generated by desktop/icons/tools/build_icons.py; do not edit by hand. -->
  <defs>
    <linearGradient id="boswas-repair-tile" gradientUnits="userSpaceOnUse" x1="8" x2="248" y1="8" y2="248">
      <stop offset="0" stop-color="#162034"/>
      <stop offset="1" stop-color="#080C16"/>
    </linearGradient>
    <linearGradient id="boswas-repair-edge" gradientUnits="userSpaceOnUse" x1="8" x2="248" y1="8" y2="248">
      <stop offset="0" stop-color="#FBD693" stop-opacity="0.85"/>
      <stop offset="1" stop-color="#B5935C" stop-opacity="0.45"/>
    </linearGradient>
    <linearGradient id="boswas-repair-silver" gradientUnits="userSpaceOnUse" x1="72" x2="184" y1="48" y2="208">
      <stop offset="0" stop-color="#D4DDEC"/>
      <stop offset="1" stop-color="#6E7A8F"/>
    </linearGradient>
    <linearGradient id="boswas-repair-gold" gradientUnits="userSpaceOnUse" x1="72" x2="184" y1="48" y2="208">
      <stop offset="0" stop-color="#FBD693"/>
      <stop offset="1" stop-color="#B5935C"/>
    </linearGradient>
  </defs>
  <rect x="8" y="8" width="240" height="240" rx="56" ry="56" fill="url(#boswas-repair-tile)"/>
  <rect x="9.5" y="9.5" width="237" height="237" rx="54.5" ry="54.5" fill="none" stroke="url(#boswas-repair-edge)" stroke-width="3"/>
  <path d="M70 60H170A18 18 0 0 1 188 78V154A18 18 0 0 1 170 172H70A18 18 0 0 1 52 154V78A18 18 0 0 1 70 60Z" fill="none" stroke="url(#boswas-repair-silver)" stroke-width="14" stroke-linecap="round" stroke-linejoin="round"/>
  <path d="M52 90L188 90" fill="none" stroke="url(#boswas-repair-silver)" stroke-width="14" stroke-linecap="round" stroke-linejoin="round"/>
  <path d="M136 116A20 20 0 1 1 116 136M150.14 150.14L198 198" fill="url(#boswas-repair-tile)" stroke="url(#boswas-repair-tile)" stroke-width="44" stroke-linecap="round" stroke-linejoin="round"/>
  <path d="M136 116A20 20 0 1 1 116 136" fill="none" stroke="url(#boswas-repair-gold)" stroke-width="18" stroke-linecap="round" stroke-linejoin="round"/>
  <path d="M150.14 150.14L198 198" fill="none" stroke="url(#boswas-repair-gold)" stroke-width="20" stroke-linecap="round" stroke-linejoin="round"/>
</svg>
