<?xml version="1.0" encoding="UTF-8"?>
<svg xmlns="http://www.w3.org/2000/svg" width="256" height="256" viewBox="0 0 256 256">
  <title>Help</title>
  <!-- Generated by desktop/icons/tools/build_icons.py; do not edit by hand. -->
  <defs>
    <linearGradient id="help-browser-tile" gradientUnits="userSpaceOnUse" x1="8" x2="248" y1="8" y2="248">
      <stop offset="0" stop-color="#162034"/>
      <stop offset="1" stop-color="#080C16"/>
    </linearGradient>
    <linearGradient id="help-browser-edge" gradientUnits="userSpaceOnUse" x1="8" x2="248" y1="8" y2="248">
      <stop offset="0" stop-color="#FBD693" stop-opacity="0.85"/>
      <stop offset="1" stop-color="#B5935C" stop-opacity="0.45"/>
    </linearGradient>
    <linearGradient id="help-browser-silver" gradientUnits="userSpaceOnUse" x1="72" x2="184" y1="48" y2="208">
      <stop offset="0" stop-color="#D4DDEC"/>
      <stop offset="1" stop-color="#6E7A8F"/>
    </linearGradient>
    <linearGradient id="help-browser-gold" gradientUnits="userSpaceOnUse" x1="72" x2="184" y1="48" y2="208">
      <stop offset="0" stop-color="#FBD693"/>
      <stop offset="1" stop-color="#B5935C"/>
    </linearGradient>
  </defs>
  <rect x="8" y="8" width="240" height="240" rx="56" ry="56" fill="url(#help-browser-tile)"/>
  <rect x="9.5" y="9.5" width="237" height="237" rx="54.5" ry="54.5" fill="none" stroke="url(#help-browser-edge)" stroke-width="3"/>
  <path d="M60 128A68 68 0 1 0 196 128A68 68 0 1 0 60 128Z" fill="none" stroke="url(#help-browser-silver)" stroke-width="14" stroke-linecap="round" stroke-linejoin="round"/>
  <path d="M104 108Q104 82 128 82Q152 82 152 105Q152 119 139 126Q128 132 128 146" fill="none" stroke="url(#help-browser-gold)" stroke-width="16" stroke-linecap="round" stroke-linejoin="round"/>
  <path d="M118 172A10 10 0 1 0 138 172A10 10 0 1 0 118 172Z" fill="url(#help-browser-gold)"/>
</svg>
