<?xml version="1.0" encoding="UTF-8"?>
<svg xmlns="http://www.w3.org/2000/svg" width="256" height="256" viewBox="0 0 256 256">
  <title>Wallet</title>
  <!-- Generated by desktop/icons/tools/build_icons.py; do not edit by hand. -->
  <defs>
    <linearGradient id="kwalletmanager-tile" gradientUnits="userSpaceOnUse" x1="8" x2="248" y1="8" y2="248">
      <stop offset="0" stop-color="#162034"/>
      <stop offset="1" stop-color="#080C16"/>
    </linearGradient>
    <linearGradient id="kwalletmanager-edge" gradientUnits="userSpaceOnUse" x1="8" x2="248" y1="8" y2="248">
      <stop offset="0" stop-color="#FBD693" stop-opacity="0.85"/>
      <stop offset="1" stop-color="#B5935C" stop-opacity="0.45"/>
    </linearGradient>
    <linearGradient id="kwalletmanager-silver" gradientUnits="userSpaceOnUse" x1="72" x2="184" y1="48" y2="208">
      <stop offset="0" stop-color="#D4DDEC"/>
      <stop offset="1" stop-color="#6E7A8F"/>
    </linearGradient>
    <linearGradient id="kwalletmanager-gold" gradientUnits="userSpaceOnUse" x1="72" x2="184" y1="48" y2="208">
      <stop offset="0" stop-color="#FBD693"/>
      <stop offset="1" stop-color="#B5935C"/>
    </linearGradient>
  </defs>
  <rect x="8" y="8" width="240" height="240" rx="56" ry="56" fill="url(#kwalletmanager-tile)"/>
  <rect x="9.5" y="9.5" width="237" height="237" rx="54.5" ry="54.5" fill="none" stroke="url(#kwalletmanager-edge)" stroke-width="3"/>
  <path d="M76 72H180A20 20 0 0 1 200 92V168A20 20 0 0 1 180 188H76A20 20 0 0 1 56 168V92A20 20 0 0 1 76 72Z" fill="none" stroke="url(#kwalletmanager-silver)" stroke-width="14" stroke-linecap="round" stroke-linejoin="round"/>
  <path d="M200 106H160Q144 106 144 122V138Q144 154 160 154H200" fill="none" stroke="url(#kwalletmanager-silver)" stroke-width="14" stroke-linecap="round" stroke-linejoin="round"/>
  <path d="M156 130A10 10 0 1 0 176 130A10 10 0 1 0 156 130Z" fill="url(#kwalletmanager-gold)"/>
</svg>
