<?xml version="1.0" encoding="UTF-8"?>
<svg xmlns="http://www.w3.org/2000/svg" width="256" height="256" viewBox="0 0 256 256">
  <title>Document Viewer</title>
  <!-- Generated by desktop/icons/tools/build_icons.py; do not edit by hand. -->
  <defs>
    <linearGradient id="okular-tile" gradientUnits="userSpaceOnUse" x1="8" x2="248" y1="8" y2="248">
      <stop offset="0" stop-color="#162034"/>
      <stop offset="1" stop-color="#080C16"/>
    </linearGradient>
    <linearGradient id="okular-edge" gradientUnits="userSpaceOnUse" x1="8" x2="248" y1="8" y2="248">
      <stop offset="0" stop-color="#FBD693" stop-opacity="0.85"/>
      <stop offset="1" stop-color="#B5935C" stop-opacity="0.45"/>
    </linearGradient>
    <linearGradient id="okular-silver" gradientUnits="userSpaceOnUse" x1="72" x2="184" y1="48" y2="208">
      <stop offset="0" stop-color="#D4DDEC"/>
      <stop offset="1" stop-color="#6E7A8F"/>
    </linearGradient>
    <linearGradient id="okular-gold" gradientUnits="userSpaceOnUse" x1="72" x2="184" y1="48" y2="208">
      <stop offset="0" stop-color="#FBD693"/>
      <stop offset="1" stop-color="#B5935C"/>
    </linearGradient>
  </defs>
  <rect x="8" y="8" width="240" height="240" rx="56" ry="56" fill="url(#okular-tile)"/>
  <rect x="9.5" y="9.5" width="237" height="237" rx="54.5" ry="54.5" fill="none" stroke="url(#okular-edge)" stroke-width="3"/>
  <path d="M128 90Q102 72 62 76V176Q102 172 128 190Q154 172 194 176V76Q154 72 128 90Z" fill="none" stroke="url(#okular-silver)" stroke-width="14" stroke-linecap="round" stroke-linejoin="round"/>
  <path d="M128 90L128 186" fill="none" stroke="url(#okular-silver)" stroke-width="14" stroke-linecap="round" stroke-linejoin="round"/>
  <path d="M152 66V120L163 110L174 120V66Z" fill="url(#okular-gold)" stroke="url(#okular-gold)" stroke-width="4" stroke-linecap="round" stroke-linejoin="round"/>
</svg>
