<?xml version="1.0" encoding="UTF-8"?>
<svg xmlns="http://www.w3.org/2000/svg" width="256" height="256" viewBox="0 0 256 256">
  <title>Screenshot</title>
  <!-- Generated by desktop/icons/tools/build_icons.py; do not edit by hand. -->
  <defs>
    <linearGradient id="org-kde-spectacle-tile" gradientUnits="userSpaceOnUse" x1="8" x2="248" y1="8" y2="248">
      <stop offset="0" stop-color="#162034"/>
      <stop offset="1" stop-color="#080C16"/>
    </linearGradient>
    <linearGradient id="org-kde-spectacle-edge" gradientUnits="userSpaceOnUse" x1="8" x2="248" y1="8" y2="248">
      <stop offset="0" stop-color="#FBD693" stop-opacity="0.85"/>
      <stop offset="1" stop-color="#B5935C" stop-opacity="0.45"/>
    </linearGradient>
    <linearGradient id="org-kde-spectacle-silver" gradientUnits="userSpaceOnUse" x1="72" x2="184" y1="48" y2="208">
      <stop offset="0" stop-color="#D4DDEC"/>
      <stop offset="1" stop-color="#6E7A8F"/>
    </linearGradient>
    <linearGradient id="org-kde-spectacle-gold" gradientUnits="userSpaceOnUse" x1="72" x2="184" y1="48" y2="208">
      <stop offset="0" stop-color="#FBD693"/>
      <stop offset="1" stop-color="#B5935C"/>
    </linearGradient>
  </defs>
  <rect x="8" y="8" width="240" height="240" rx="56" ry="56" fill="url(#org-kde-spectacle-tile)"/>
  <rect x="9.5" y="9.5" width="237" height="237" rx="54.5" ry="54.5" fill="none" stroke="url(#org-kde-spectacle-edge)" stroke-width="3"/>
  <path d="M60 104V78Q60 60 78 60H104" fill="none" stroke="url(#org-kde-spectacle-silver)" stroke-width="14" stroke-linecap="round" stroke-linejoin="round"/>
  <path d="M152 60H178Q196 60 196 78V104" fill="none" stroke="url(#org-kde-spectacle-silver)" stroke-width="14" stroke-linecap="round" stroke-linejoin="round"/>
  <path d="M196 152V178Q196 196 178 196H152" fill="none" stroke="url(#org-kde-spectacle-silver)" stroke-width="14" stroke-linecap="round" stroke-linejoin="round"/>
  <path d="M104 196H78Q60 196 60 178V152" fill="none" stroke="url(#org-kde-spectacle-silver)" stroke-width="14" stroke-linecap="round" stroke-linejoin="round"/>
  <path d="M104 128A24 24 0 1 0 152 128A24 24 0 1 0 104 128Z" fill="url(#org-kde-spectacle-gold)"/>
</svg>
