<?xml version="1.0" encoding="UTF-8"?>
<svg xmlns="http://www.w3.org/2000/svg" width="256" height="256" viewBox="0 0 256 256">
  <title>Notifications</title>
  <!-- Generated by desktop/icons/tools/build_icons.py; do not edit by hand. -->
  <defs>
    <linearGradient id="preferences-desktop-notification-bell-tile" gradientUnits="userSpaceOnUse" x1="8" x2="248" y1="8" y2="248">
      <stop offset="0" stop-color="#162034"/>
      <stop offset="1" stop-color="#080C16"/>
    </linearGradient>
    <linearGradient id="preferences-desktop-notification-bell-edge" gradientUnits="userSpaceOnUse" x1="8" x2="248" y1="8" y2="248">
      <stop offset="0" stop-color="#FBD693" stop-opacity="0.85"/>
      <stop offset="1" stop-color="#B5935C" stop-opacity="0.45"/>
    </linearGradient>
    <linearGradient id="preferences-desktop-notification-bell-silver" gradientUnits="userSpaceOnUse" x1="72" x2="184" y1="48" y2="208">
      <stop offset="0" stop-color="#D4DDEC"/>
      <stop offset="1" stop-color="#6E7A8F"/>
    </linearGradient>
    <linearGradient id="preferences-desktop-notification-bell-gold" gradientUnits="userSpaceOnUse" x1="72" x2="184" y1="48" y2="208">
      <stop offset="0" stop-color="#FBD693"/>
      <stop offset="1" stop-color="#B5935C"/>
    </linearGradient>
  </defs>
  <rect x="8" y="8" width="240" height="240" rx="56" ry="56" fill="url(#preferences-desktop-notification-bell-tile)"/>
  <rect x="9.5" y="9.5" width="237" height="237" rx="54.5" ry="54.5" fill="none" stroke="url(#preferences-desktop-notification-bell-edge)" stroke-width="3"/>
  <path d="M128 66L128 84" fill="none" stroke="url(#preferences-desktop-notification-bell-silver)" stroke-width="14" stroke-linecap="round" stroke-linejoin="round"/>
  <path d="M78 166Q92 154 92 128V120Q92 84 128 84Q164 84 164 120V128Q164 154 178 166Z" fill="none" stroke="url(#preferences-desktop-notification-bell-silver)" stroke-width="14" stroke-linecap="round" stroke-linejoin="round"/>
  <path d="M110 182A18 18 0 0 0 146 182Z" fill="url(#preferences-desktop-notification-bell-gold)" stroke="url(#preferences-desktop-notification-bell-gold)" stroke-width="6" stroke-linecap="round" stroke-linejoin="round"/>
</svg>
