<svg xmlns="http://www.w3.org/2000/svg" width="3840" height="2160" viewBox="0 0 3840 2160">
  <title>Boswas Midnight light wallpaper</title>
  <!-- Generated by desktop/presets/tools/build_presets.py from presets.json; do not edit by hand. -->
  <defs>
    <linearGradient id="w-lin1" gradientUnits="userSpaceOnUse" x1="0" y1="0" x2="3840" y2="2160"><stop offset="0" stop-color="#E4E7EC"/><stop offset="0.55" stop-color="#D7DBE2"/><stop offset="1" stop-color="#C8CED8"/></linearGradient>
    <radialGradient id="w-rad2" gradientUnits="userSpaceOnUse" cx="2960" cy="1040" r="1500"><stop offset="0" stop-color="#C2A26A" stop-opacity="0.14"/><stop offset="0.5" stop-color="#C2A26A" stop-opacity="0.04"/><stop offset="1" stop-color="#C2A26A" stop-opacity="0"/></radialGradient>
    <radialGradient id="w-rad3" gradientUnits="userSpaceOnUse" cx="420" cy="2220" r="1700"><stop offset="0" stop-color="#9AA3B2" stop-opacity="0.3"/><stop offset="1" stop-color="#9AA3B2" stop-opacity="0"/></radialGradient>
    <linearGradient id="w-lin4" gradientUnits="userSpaceOnUse" x1="2196.78" y1="70" x2="2196.78" y2="1414.57"><stop offset="0" stop-color="#2A3240" stop-opacity="0.1"/><stop offset="0.55" stop-color="#2A3240" stop-opacity="0.03"/><stop offset="1" stop-color="#2A3240" stop-opacity="0"/></linearGradient>
    <linearGradient id="w-lin5" gradientUnits="userSpaceOnUse" x1="2612.66" y1="913.58" x2="3098.47" y2="697.28"><stop offset="0" stop-color="#8F7A50" stop-opacity="0"/><stop offset="0.7" stop-color="#8F7A50" stop-opacity="0.55"/><stop offset="1" stop-color="#B39762" stop-opacity="0.95"/></linearGradient>
    <radialGradient id="w-rad6" gradientUnits="userSpaceOnUse" cx="3098.47" cy="697.28" r="119"><stop offset="0" stop-color="#FFFFFF" stop-opacity="0.7"/><stop offset="1" stop-color="#FFFFFF" stop-opacity="0"/></radialGradient>
    <linearGradient id="w-lin7" gradientUnits="userSpaceOnUse" x1="3668.85" y1="1270.32" x2="3477.75" y2="1576.14"><stop offset="0" stop-color="#8F7A50" stop-opacity="0"/><stop offset="0.5" stop-color="#B39762" stop-opacity="0.4"/><stop offset="1" stop-color="#8F7A50" stop-opacity="0"/></linearGradient>
  </defs>
  <rect width="3840" height="2160" fill="url(#w-lin1)"/>
  <rect width="3840" height="2160" fill="url(#w-rad2)"/>
  <rect width="3840" height="2160" fill="url(#w-rad3)"/>
  <g fill="none" stroke="#2A3240" stroke-width="2"><path d="M1314.55 1990A1900 1900 0 0 1 2310.16 -745.42" stroke-opacity="0.05"/><path d="M1098.05 2115A2150 2150 0 0 1 2224.66 -980.34" stroke-opacity="0.04"/><path d="M881.54 2240A2400 2400 0 0 1 2139.15 -1215.26" stroke-opacity="0.03"/></g>
  <path d="M2196.78 70A429.31 376.48 0 0 1 2626.09 446.48L2626.09 1414.57A429.31 430.26 0 0 1 2196.78 984.31Z" fill="none" stroke="url(#w-lin4)" stroke-width="3"/>
  <g fill="none" stroke="#2A3240"><circle cx="2960" cy="1040" r="260.31" stroke-opacity="0.09" stroke-width="3"/><circle cx="2960" cy="1040" r="369.63" stroke-opacity="0.07" stroke-width="3"/><circle cx="2960" cy="1040" r="524.88" stroke-opacity="0.06" stroke-width="3"/><circle cx="2960" cy="1040" r="745.33" stroke-opacity="0.04" stroke-width="3"/><circle cx="2960" cy="1040" r="1058.37" stroke-opacity="0.03" stroke-width="3"/></g>
  <path d="M2612.66 913.58A369.63 369.63 0 0 1 3098.47 697.28" fill="none" stroke="url(#w-lin5)" stroke-width="6" stroke-linecap="round"/>
  <circle cx="3098.47" cy="697.28" r="119" fill="url(#w-rad6)"/>
  <circle cx="3098.47" cy="697.28" r="17" fill="#B39762" fill-opacity="1"/>
  <path d="M3668.85 1270.32A745.33 745.33 0 0 1 3477.75 1576.14" fill="none" stroke="url(#w-lin7)" stroke-width="3" stroke-linecap="round"/>
  <image x="2778.63" y="778.35" width="354.02" height="440" href="../../../branding/boswas-os-mark-mono.svg" data-fill="#2A3240" opacity="0.07"/>
</svg>
