<?xml version="1.0" standalone="no"?>
<!-- Boswas symbol (gear and crescent). Traced from desktop/branding/source/ by tools/trace_brand.py (potrace). Do not edit by hand; re-run the tool. -->
<svg version="1.0" xmlns="http://www.w3.org/2000/svg"
 width="280.000000pt" height="311.000000pt" viewBox="0 0 280.000000 311.000000"
 preserveAspectRatio="xMidYMid meet">
<g transform="translate(0.000000,311.000000) scale(0.025000,-0.025000)"
fill="#ffffff" stroke="none">
<path d="M5600 12180 c0 -18 -7 -20 -60 -20 -53 0 -60 -2 -60 -20 0 -17 -7
-20 -40 -20 -33 0 -40 -3 -40 -20 0 -13 -7 -20 -20 -20 -13 0 -20 -7 -20 -20
0 -13 -7 -20 -20 -20 -17 0 -20 -7 -20 -40 0 -33 -3 -40 -20 -40 -17 0 -20 -7
-20 -40 0 -33 -3 -40 -20 -40 -18 0 -20 -7 -20 -60 0 -53 -2 -60 -20 -60 -17
0 -20 -7 -20 -40 0 -33 -3 -40 -20 -40 -18 0 -20 -7 -20 -60 0 -53 -2 -60 -20
-60 -18 0 -20 -7 -20 -60 0 -53 -2 -60 -20 -60 -17 0 -20 -7 -20 -40 0 -33 -3
-40 -20 -40 -13 0 -20 -7 -20 -20 0 -13 -7 -20 -20 -20 -13 0 -20 -7 -20 -20
0 -18 -7 -20 -80 -20 -73 0 -80 -2 -80 -20 0 -18 -7 -20 -60 -20 -53 0 -60 -2
-60 -20 0 -18 -7 -20 -60 -20 -53 0 -60 -2 -60 -20 0 -18 -7 -20 -60 -20 -53
0 -60 -2 -60 -20 0 -18 -7 -20 -60 -20 -53 0 -60 -2 -60 -20 0 -17 -7 -20 -40
-20 -33 0 -40 -3 -40 -20 0 -18 -7 -20 -60 -20 -53 0 -60 -2 -60 -20 0 -17 -7
-20 -40 -20 -33 0 -40 -3 -40 -20 0 -17 -7 -20 -40 -20 -33 0 -40 -3 -40 -20
0 -17 -7 -20 -40 -20 -33 0 -40 -3 -40 -20 0 -17 -7 -20 -40 -20 -33 0 -40 -3
-40 -20 0 -17 -7 -20 -40 -20 -33 0 -40 -3 -40 -20 0 -17 -7 -20 -40 -20 -33
0 -40 -3 -40 -20 0 -17 -7 -20 -40 -20 -33 0 -40 -3 -40 -20 0 -17 -7 -20 -40
-20 -33 0 -40 -3 -40 -20 0 -18 -7 -20 -60 -20 -53 0 -60 2 -60 20 0 17 -7 20
-40 20 -33 0 -40 3 -40 20 0 17 -7 20 -40 20 -33 0 -40 3 -40 20 0 17 -7 20
-40 20 -33 0 -40 3 -40 20 0 17 -7 20 -40 20 -33 0 -40 3 -40 20 0 18 -7 20
-60 20 -53 0 -60 2 -60 20 0 18 -7 20 -60 20 -53 0 -60 2 -60 20 0 19 -7 20
-120 20 -113 0 -120 -1 -120 -20 0 -18 -7 -20 -60 -20 -53 0 -60 -2 -60 -20 0
-13 -7 -20 -20 -20 -13 0 -20 -7 -20 -20 0 -17 -7 -20 -40 -20 -33 0 -40 -3
-40 -20 0 -13 -7 -20 -20 -20 -13 0 -20 -7 -20 -20 0 -13 -7 -20 -20 -20 -13
0 -20 -7 -20 -20 0 -13 -7 -20 -20 -20 -13 0 -20 -7 -20 -20 0 -13 -7 -20 -20
-20 -13 0 -20 -7 -20 -20 0 -13 -7 -20 -20 -20 -13 0 -20 -7 -20 -20 0 -13 -7
-20 -20 -20 -13 0 -20 -7 -20 -20 0 -13 -7 -20 -20 -20 -13 0 -20 -7 -20 -20
0 -13 -7 -20 -20 -20 -13 0 -20 -7 -20 -20 0 -13 -7 -20 -20 -20 -13 0 -20 -7
-20 -20 0 -13 -7 -20 -20 -20 -13 0 -20 -7 -20 -20 0 -13 -7 -20 -20 -20 -13
0 -20 -7 -20 -20 0 -13 -7 -20 -20 -20 -13 0 -20 -7 -20 -20 0 -13 -7 -20 -20
-20 -13 0 -20 -7 -20 -20 0 -13 -7 -20 -20 -20 -13 0 -20 -7 -20 -20 0 -13 -7
-20 -20 -20 -13 0 -20 -7 -20 -20 0 -13 -7 -20 -20 -20 -13 0 -20 -7 -20 -20
0 -13 -7 -20 -20 -20 -13 0 -20 -7 -20 -20 0 -13 -7 -20 -20 -20 -13 0 -20 -7
-20 -20 0 -13 -7 -20 -20 -20 -17 0 -20 -7 -20 -40 0 -33 -3 -40 -20 -40 -17
0 -20 -7 -20 -40 0 -33 -3 -40 -20 -40 -19 0 -20 -7 -20 -180 0 -173 1 -180
20 -180 17 0 20 -7 20 -40 0 -33 3 -40 20 -40 18 0 20 -7 20 -60 0 -53 2 -60
20 -60 17 0 20 -7 20 -40 0 -33 3 -40 20 -40 17 0 20 -7 20 -40 0 -33 3 -40
20 -40 18 0 20 -7 20 -60 0 -53 2 -60 20 -60 19 0 20 -7 20 -100 0 -93 -1
-100 -20 -100 -17 0 -20 -7 -20 -40 0 -33 -3 -40 -20 -40 -17 0 -20 -7 -20
-40 0 -33 -3 -40 -20 -40 -13 0 -20 -7 -20 -20 0 -13 -7 -20 -20 -20 -17 0
-20 -7 -20 -40 0 -33 -3 -40 -20 -40 -17 0 -20 -7 -20 -40 0 -33 -3 -40 -20
-40 -18 0 -20 -7 -20 -60 0 -53 -2 -60 -20 -60 -17 0 -20 -7 -20 -40 0 -33 -3
-40 -20 -40 -17 0 -20 -7 -20 -40 0 -33 -3 -40 -20 -40 -18 0 -20 -7 -20 -60
0 -53 -2 -60 -20 -60 -17 0 -20 -7 -20 -40 0 -33 -3 -40 -20 -40 -18 0 -20 -7
-20 -60 0 -53 -2 -60 -20 -60 -17 0 -20 -7 -20 -40 0 -33 -3 -40 -20 -40 -18
0 -20 -7 -20 -80 0 -73 -2 -80 -20 -80 -18 0 -20 -7 -20 -80 0 -73 -2 -80 -20
-80 -17 0 -20 -7 -20 -40 0 -33 -3 -40 -20 -40 -13 0 -20 -7 -20 -20 0 -17 -7
-20 -40 -20 -33 0 -40 -3 -40 -20 0 -18 -7 -20 -60 -20 -53 0 -60 -2 -60 -20
0 -18 -7 -20 -60 -20 -53 0 -60 -2 -60 -20 0 -17 -7 -20 -40 -20 -33 0 -40 -3
-40 -20 0 -18 -7 -20 -60 -20 -53 0 -60 -2 -60 -20 0 -17 -7 -20 -40 -20 -33
0 -40 -3 -40 -20 0 -17 -7 -20 -40 -20 -33 0 -40 -3 -40 -20 0 -13 -7 -20 -20
-20 -13 0 -20 -7 -20 -20 0 -13 -7 -20 -20 -20 -17 0 -20 -7 -20 -40 0 -33 -3
-40 -20 -40 -13 0 -20 -7 -20 -20 0 -13 -7 -20 -20 -20 -18 0 -20 -7 -20 -80
0 -73 -2 -80 -20 -80 -20 0 -20 -7 -20 -560 0 -553 0 -560 20 -560 18 0 20 -7
20 -60 0 -53 2 -60 20 -60 17 0 20 -7 20 -40 0 -33 3 -40 20 -40 17 0 20 -7
20 -40 0 -33 3 -40 20 -40 13 0 20 -7 20 -20 0 -13 7 -20 20 -20 13 0 20 -7
20 -20 0 -17 7 -20 40 -20 33 0 40 -3 40 -20 0 -17 7 -20 40 -20 33 0 40 -3
40 -20 0 -17 7 -20 40 -20 33 0 40 -3 40 -20 0 -18 7 -20 60 -20 53 0 60 -2
60 -20 0 -18 7 -20 60 -20 53 0 60 -2 60 -20 0 -17 7 -20 40 -20 33 0 40 -3
40 -20 0 -18 7 -20 60 -20 53 0 60 -2 60 -20 0 -13 7 -20 20 -20 17 0 20 -7
20 -40 0 -33 3 -40 20 -40 18 0 20 -7 20 -80 0 -73 2 -80 20 -80 18 0 20 -7
20 -80 0 -73 2 -80 20 -80 17 0 20 -7 20 -40 0 -33 3 -40 20 -40 18 0 20 -7
20 -60 0 -53 2 -60 20 -60 18 0 20 -7 20 -60 0 -53 2 -60 20 -60 17 0 20 -7
20 -40 0 -33 3 -40 20 -40 18 0 20 -7 20 -60 0 -53 2 -60 20 -60 17 0 20 -7
20 -40 0 -33 3 -40 20 -40 17 0 20 -7 20 -40 0 -33 3 -40 20 -40 17 0 20 -7
20 -40 0 -33 3 -40 20 -40 17 0 20 -7 20 -40 0 -33 3 -40 20 -40 17 0 20 -7
20 -40 0 -33 3 -40 20 -40 13 0 20 -7 20 -20 0 -13 7 -20 20 -20 17 0 20 -7
20 -40 0 -33 3 -40 20 -40 19 0 20 -7 20 -120 0 -113 -1 -120 -20 -120 -17 0
-20 -7 -20 -40 0 -33 -3 -40 -20 -40 -18 0 -20 -7 -20 -60 0 -53 -2 -60 -20
-60 -17 0 -20 -7 -20 -40 0 -33 -3 -40 -20 -40 -17 0 -20 -7 -20 -40 0 -33 -3
-40 -20 -40 -17 0 -20 -7 -20 -40 0 -33 -3 -40 -20 -40 -19 0 -20 -7 -20 -200
0 -193 1 -200 20 -200 17 0 20 -7 20 -40 0 -33 3 -40 20 -40 13 0 20 -7 20
-20 0 -13 7 -20 20 -20 13 0 20 -7 20 -20 0 -13 7 -20 20 -20 13 0 20 -7 20
-20 0 -13 7 -20 20 -20 13 0 20 -7 20 -20 0 -13 7 -20 20 -20 13 0 20 -7 20
-20 0 -13 7 -20 20 -20 13 0 20 -7 20 -20 0 -13 7 -20 20 -20 13 0 20 -7 20
-20 0 -13 7 -20 20 -20 13 0 20 -7 20 -20 0 -13 7 -20 20 -20 13 0 20 -7 20
-20 0 -13 7 -20 20 -20 13 0 20 -7 20 -20 0 -13 7 -20 20 -20 13 0 20 -7 20
-20 0 -13 7 -20 20 -20 13 0 20 -7 20 -20 0 -13 7 -20 20 -20 13 0 20 -7 20
-20 0 -13 7 -20 20 -20 13 0 20 -7 20 -20 0 -13 7 -20 20 -20 13 0 20 -7 20
-20 0 -13 7 -20 20 -20 13 0 20 -7 20 -20 0 -13 7 -20 20 -20 13 0 20 -7 20
-20 0 -13 7 -20 20 -20 13 0 20 -7 20 -20 0 -13 7 -20 20 -20 13 0 20 -7 20
-20 0 -13 7 -20 20 -20 13 0 20 -7 20 -20 0 -13 7 -20 20 -20 13 0 20 -7 20
-20 0 -13 7 -20 20 -20 13 0 20 -7 20 -20 0 -17 7 -20 40 -20 33 0 40 -3 40
-20 0 -19 7 -20 180 -20 173 0 180 1 180 20 0 18 7 20 60 20 53 0 60 2 60 20
0 17 7 20 40 20 33 0 40 3 40 20 0 17 7 20 40 20 33 0 40 3 40 20 0 17 7 20
40 20 33 0 40 3 40 20 0 18 7 20 60 20 53 0 60 2 60 20 0 17 7 20 40 20 33 0
40 3 40 20 0 17 7 20 40 20 33 0 40 -3 40 -20 0 -17 7 -20 40 -20 33 0 40 -3
40 -20 0 -17 7 -20 40 -20 33 0 40 -3 40 -20 0 -13 7 -20 20 -20 13 0 20 -7
20 -20 0 -17 7 -20 40 -20 33 0 40 -3 40 -20 0 -17 7 -20 40 -20 33 0 40 -3
40 -20 0 -17 7 -20 40 -20 33 0 40 -3 40 -20 0 -17 7 -20 40 -20 33 0 40 -3
40 -20 0 -18 7 -20 60 -20 53 0 60 -2 60 -20 0 -17 7 -20 40 -20 33 0 40 -3
40 -20 0 -18 7 -20 60 -20 53 0 60 -2 60 -20 0 -17 7 -20 40 -20 33 0 40 -3
40 -20 0 -18 7 -20 60 -20 53 0 60 -2 60 -20 0 -18 7 -20 60 -20 53 0 60 -2
60 -20 0 -18 7 -20 80 -20 73 0 80 -2 80 -20 0 -18 7 -20 60 -20 53 0 60 -2
60 -20 0 -17 7 -20 40 -20 l40 0 0 -40 c0 -33 3 -40 20 -40 17 0 20 -7 20 -40
0 -33 3 -40 20 -40 17 0 20 -7 20 -40 0 -33 3 -40 20 -40 18 0 20 -7 20 -60 0
-53 2 -60 20 -60 18 0 20 -7 20 -60 0 -53 2 -60 20 -60 17 0 20 -7 20 -40 0
-33 3 -40 20 -40 17 0 20 -7 20 -40 0 -33 3 -40 20 -40 17 0 20 -7 20 -40 0
-33 3 -40 20 -40 13 0 20 -7 20 -20 0 -13 7 -20 20 -20 13 0 20 -7 20 -20 0
-17 7 -20 40 -20 33 0 40 -3 40 -20 0 -17 7 -20 40 -20 33 0 40 -3 40 -20 0
-18 7 -20 80 -20 73 0 80 -2 80 -20 0 -20 7 -20 500 -20 493 0 500 0 500 20 0
19 7 20 100 20 93 0 100 1 100 20 0 17 7 20 40 20 33 0 40 3 40 20 0 13 7 20
20 20 13 0 20 7 20 20 0 13 7 20 20 20 13 0 20 7 20 20 0 13 7 20 20 20 13 0
20 7 20 20 0 13 7 20 20 20 17 0 20 7 20 40 0 33 3 40 20 40 17 0 20 7 20 40
0 33 3 40 20 40 17 0 20 7 20 40 0 33 3 40 20 40 18 0 20 7 20 60 0 53 2 60
20 60 18 0 20 7 20 60 0 53 2 60 20 60 17 0 20 7 20 40 0 33 3 40 20 40 18 0
20 7 20 60 l0 60 40 0 c33 0 40 3 40 20 0 18 7 20 80 20 73 0 80 2 80 20 0 18
7 20 80 20 73 0 80 2 80 20 0 18 7 20 60 20 53 0 60 2 60 20 0 17 7 20 40 20
33 0 40 3 40 20 0 18 7 20 60 20 53 0 60 2 60 20 0 18 7 20 60 20 53 0 60 2
60 20 0 17 7 20 40 20 33 0 40 3 40 20 0 17 7 20 40 20 33 0 40 3 40 20 0 17
7 20 40 20 33 0 40 3 40 20 0 18 7 20 60 20 53 0 60 2 60 20 0 17 7 20 40 20
33 0 40 3 40 20 0 13 7 20 20 20 13 0 20 7 20 20 0 17 7 20 40 20 33 0 40 3
40 20 0 17 7 20 40 20 33 0 40 3 40 20 0 17 7 20 40 20 33 0 40 3 40 20 0 13
7 20 20 20 13 0 20 -7 20 -20 0 -18 7 -20 60 -20 53 0 60 -2 60 -20 0 -17 7
-20 40 -20 33 0 40 -3 40 -20 0 -17 7 -20 40 -20 33 0 40 -3 40 -20 0 -17 7
-20 40 -20 33 0 40 -3 40 -20 0 -18 7 -20 60 -20 53 0 60 -2 60 -20 0 -17 7
-20 40 -20 33 0 40 -3 40 -20 0 -19 7 -20 180 -20 173 0 180 1 180 20 0 17 7
20 40 20 33 0 40 3 40 20 0 17 7 20 40 20 33 0 40 3 40 20 0 13 7 20 20 20 13
0 20 7 20 20 0 13 7 20 20 20 13 0 20 7 20 20 0 13 7 20 20 20 13 0 20 7 20
20 0 13 7 20 20 20 13 0 20 7 20 20 0 13 7 20 20 20 13 0 20 7 20 20 0 13 7
20 20 20 13 0 20 7 20 20 0 13 7 20 20 20 13 0 20 7 20 20 0 13 7 20 20 20 13
0 20 7 20 20 0 13 7 20 20 20 13 0 20 7 20 20 0 13 7 20 20 20 13 0 20 7 20
20 0 13 7 20 20 20 13 0 20 7 20 20 0 13 7 20 20 20 13 0 20 7 20 20 0 13 7
20 20 20 13 0 20 7 20 20 0 13 7 20 20 20 13 0 20 7 20 20 0 13 7 20 20 20 13
0 20 7 20 20 0 13 7 20 20 20 13 0 20 7 20 20 0 13 7 20 20 20 13 0 20 7 20
20 0 13 7 20 20 20 13 0 20 7 20 20 0 13 7 20 20 20 17 0 20 7 20 40 0 33 3
40 20 40 13 0 20 7 20 20 0 13 7 20 20 20 18 0 20 7 20 60 0 53 2 60 20 60 19
0 20 7 20 120 0 113 -1 120 -20 120 -18 0 -20 7 -20 60 0 53 -2 60 -20 60 -17
0 -20 7 -20 40 0 33 -3 40 -20 40 -17 0 -20 7 -20 40 0 33 -3 40 -20 40 -18 0
-20 7 -20 60 0 53 -2 60 -20 60 -17 0 -20 7 -20 40 0 33 -3 40 -20 40 -17 0
-20 7 -20 40 0 33 -3 40 -20 40 -18 0 -20 7 -20 80 l0 80 -200 0 -200 0 0 -80
c0 -73 2 -80 20 -80 17 0 20 -7 20 -40 0 -33 3 -40 20 -40 17 0 20 -7 20 -40
0 -33 3 -40 20 -40 17 0 20 -7 20 -40 0 -33 3 -40 20 -40 17 0 20 -7 20 -40 0
-33 3 -40 20 -40 18 0 20 -7 20 -60 0 -53 2 -60 20 -60 17 0 20 -7 20 -40 0
-33 3 -40 20 -40 18 0 20 -7 20 -60 0 -53 2 -60 20 -60 13 0 20 -7 20 -20 0
-13 -7 -20 -20 -20 -18 0 -20 -7 -20 -60 0 -53 -2 -60 -20 -60 -13 0 -20 -7
-20 -20 0 -13 -7 -20 -20 -20 -13 0 -20 -7 -20 -20 0 -13 -7 -20 -20 -20 -13
0 -20 -7 -20 -20 0 -13 -7 -20 -20 -20 -13 0 -20 -7 -20 -20 0 -13 -7 -20 -20
-20 -13 0 -20 -7 -20 -20 0 -13 -7 -20 -20 -20 -13 0 -20 -7 -20 -20 0 -13 -7
-20 -20 -20 -13 0 -20 -7 -20 -20 0 -13 -7 -20 -20 -20 -13 0 -20 -7 -20 -20
0 -13 -7 -20 -20 -20 -13 0 -20 -7 -20 -20 0 -13 -7 -20 -20 -20 -13 0 -20 -7
-20 -20 0 -13 -7 -20 -20 -20 -13 0 -20 -7 -20 -20 0 -13 -7 -20 -20 -20 -13
0 -20 -7 -20 -20 0 -13 -7 -20 -20 -20 -13 0 -20 -7 -20 -20 0 -13 -7 -20 -20
-20 -13 0 -20 -7 -20 -20 0 -13 -7 -20 -20 -20 -13 0 -20 -7 -20 -20 0 -13 -7
-20 -20 -20 -13 0 -20 -7 -20 -20 0 -13 -7 -20 -20 -20 -13 0 -20 -7 -20 -20
0 -17 -7 -20 -40 -20 -33 0 -40 -3 -40 -20 0 -18 -7 -20 -60 -20 -53 0 -60 2
-60 20 0 17 -7 20 -40 20 -33 0 -40 3 -40 20 0 18 -7 20 -60 20 -53 0 -60 2
-60 20 0 17 -7 20 -40 20 -33 0 -40 3 -40 20 0 18 -7 20 -60 20 -53 0 -60 2
-60 20 0 17 -7 20 -40 20 -33 0 -40 3 -40 20 0 17 -7 20 -40 20 -33 0 -40 3
-40 20 0 18 -7 20 -60 20 -53 0 -60 2 -60 20 0 17 -7 20 -40 20 -33 0 -40 -3
-40 -20 0 -17 -7 -20 -40 -20 -33 0 -40 -3 -40 -20 0 -17 -7 -20 -40 -20 -33
0 -40 -3 -40 -20 0 -13 -7 -20 -20 -20 -13 0 -20 -7 -20 -20 0 -17 -7 -20 -40
-20 -33 0 -40 -3 -40 -20 0 -17 -7 -20 -40 -20 -33 0 -40 -3 -40 -20 0 -17 -7
-20 -40 -20 -33 0 -40 -3 -40 -20 0 -17 -7 -20 -40 -20 -33 0 -40 -3 -40 -20
0 -17 -7 -20 -40 -20 -33 0 -40 -3 -40 -20 0 -17 -7 -20 -40 -20 -33 0 -40 -3
-40 -20 0 -17 -7 -20 -40 -20 -33 0 -40 -3 -40 -20 0 -18 -7 -20 -60 -20 -53
0 -60 -2 -60 -20 0 -17 -7 -20 -40 -20 -33 0 -40 -3 -40 -20 0 -18 -7 -20 -60
-20 -53 0 -60 -2 -60 -20 0 -18 -7 -20 -60 -20 -53 0 -60 -2 -60 -20 0 -18 -7
-20 -60 -20 -53 0 -60 -2 -60 -20 0 -18 -7 -20 -80 -20 -73 0 -80 -2 -80 -20
0 -18 -7 -20 -80 -20 -73 0 -80 -2 -80 -20 0 -17 -7 -20 -40 -20 -33 0 -40 -3
-40 -20 0 -13 -7 -20 -20 -20 -13 0 -20 -7 -20 -20 0 -13 -7 -20 -20 -20 -17
0 -20 -7 -20 -40 0 -33 -3 -40 -20 -40 -17 0 -20 -7 -20 -40 0 -33 -3 -40 -20
-40 -18 0 -20 -7 -20 -60 0 -53 -2 -60 -20 -60 -18 0 -20 -7 -20 -60 0 -53 -2
-60 -20 -60 -17 0 -20 -7 -20 -40 0 -33 -3 -40 -20 -40 -18 0 -20 -7 -20 -60
0 -53 -2 -60 -20 -60 -17 0 -20 -7 -20 -40 0 -33 -3 -40 -20 -40 -13 0 -20 -7
-20 -20 0 -13 -7 -20 -20 -20 -13 0 -20 -7 -20 -20 0 -18 -7 -20 -60 -20 -53
0 -60 -2 -60 -20 0 -19 -7 -20 -100 -20 -93 0 -100 1 -100 20 0 18 -7 20 -80
20 -73 0 -80 -2 -80 -20 0 -19 -7 -20 -100 -20 -93 0 -100 1 -100 20 0 19 -7
20 -240 20 -233 0 -240 1 -240 20 0 13 -7 20 -20 20 -17 0 -20 7 -20 40 0 33
-3 40 -20 40 -18 0 -20 7 -20 60 0 53 -2 60 -20 60 -17 0 -20 7 -20 40 0 33
-3 40 -20 40 -18 0 -20 7 -20 60 0 53 -2 60 -20 60 -18 0 -20 7 -20 60 0 53
-2 60 -20 60 -17 0 -20 7 -20 40 0 33 -3 40 -20 40 -18 0 -20 7 -20 60 0 53
-2 60 -20 60 -13 0 -20 7 -20 20 0 13 -7 20 -20 20 -13 0 -20 7 -20 20 0 17
-7 20 -40 20 -33 0 -40 3 -40 20 0 18 -7 20 -80 20 -73 0 -80 2 -80 20 0 18
-7 20 -80 20 -73 0 -80 2 -80 20 0 18 -7 20 -80 20 -73 0 -80 2 -80 20 0 18
-7 20 -60 20 -53 0 -60 2 -60 20 0 18 -7 20 -60 20 -53 0 -60 2 -60 20 0 17
-7 20 -40 20 -33 0 -40 3 -40 20 0 17 -7 20 -40 20 -33 0 -40 3 -40 20 0 18
-7 20 -60 20 -53 0 -60 2 -60 20 0 17 -7 20 -40 20 -33 0 -40 3 -40 20 0 13
-7 20 -20 20 -13 0 -20 7 -20 20 0 17 -7 20 -40 20 -33 0 -40 3 -40 20 0 17
-7 20 -40 20 -33 0 -40 3 -40 20 0 17 -7 20 -40 20 -33 0 -40 3 -40 20 0 17
-7 20 -40 20 -33 0 -40 3 -40 20 0 17 -7 20 -40 20 -33 0 -40 3 -40 20 0 13
-7 20 -20 20 -13 0 -20 7 -20 20 0 18 -7 20 -60 20 -53 0 -60 2 -60 20 0 17
-7 20 -40 20 -33 0 -40 -3 -40 -20 0 -17 -7 -20 -40 -20 -33 0 -40 -3 -40 -20
0 -18 -7 -20 -60 -20 -53 0 -60 -2 -60 -20 0 -17 -7 -20 -40 -20 -33 0 -40 -3
-40 -20 0 -17 -7 -20 -40 -20 -33 0 -40 -3 -40 -20 0 -18 -7 -20 -60 -20 -53
0 -60 -2 -60 -20 0 -17 -7 -20 -40 -20 -33 0 -40 -3 -40 -20 0 -17 -7 -20 -40
-20 -33 0 -40 -3 -40 -20 0 -18 -7 -20 -80 -20 -73 0 -80 2 -80 20 0 13 -7 20
-20 20 -13 0 -20 7 -20 20 0 13 -7 20 -20 20 -13 0 -20 7 -20 20 0 13 -7 20
-20 20 -13 0 -20 7 -20 20 0 13 -7 20 -20 20 -13 0 -20 7 -20 20 0 13 -7 20
-20 20 -13 0 -20 7 -20 20 0 17 -7 20 -40 20 l-40 0 0 40 c0 33 -3 40 -20 40
-13 0 -20 7 -20 20 0 13 -7 20 -20 20 -13 0 -20 7 -20 20 0 13 -7 20 -20 20
-13 0 -20 7 -20 20 0 13 -7 20 -20 20 -13 0 -20 7 -20 20 0 13 -7 20 -20 20
-13 0 -20 7 -20 20 0 13 -7 20 -20 20 -13 0 -20 7 -20 20 0 13 -7 20 -20 20
-13 0 -20 7 -20 20 0 13 -7 20 -20 20 -13 0 -20 7 -20 20 0 13 -7 20 -20 20
-13 0 -20 7 -20 20 0 13 -7 20 -20 20 -13 0 -20 7 -20 20 0 13 -7 20 -20 20
-13 0 -20 7 -20 20 0 13 -7 20 -20 20 -19 0 -20 7 -20 100 0 93 1 100 20 100
17 0 20 7 20 40 0 33 3 40 20 40 17 0 20 7 20 40 0 33 3 40 20 40 17 0 20 7
20 40 0 33 3 40 20 40 17 0 20 7 20 40 0 33 3 40 20 40 18 0 20 7 20 60 0 53
2 60 20 60 17 0 20 7 20 40 0 33 3 40 20 40 18 0 20 7 20 60 0 53 2 60 20 60
13 0 20 7 20 20 0 13 -7 20 -20 20 -18 0 -20 7 -20 60 0 53 -2 60 -20 60 -13
0 -20 7 -20 20 0 13 -7 20 -20 20 -17 0 -20 7 -20 40 0 33 -3 40 -20 40 -17 0
-20 7 -20 40 0 33 -3 40 -20 40 -13 0 -20 7 -20 20 0 13 -7 20 -20 20 -17 0
-20 7 -20 40 0 33 -3 40 -20 40 -17 0 -20 7 -20 40 0 33 -3 40 -20 40 -17 0
-20 7 -20 40 0 33 -3 40 -20 40 -17 0 -20 7 -20 40 0 33 -3 40 -20 40 -17 0
-20 7 -20 40 0 33 -3 40 -20 40 -18 0 -20 7 -20 60 0 53 -2 60 -20 60 -18 0
-20 7 -20 60 0 53 -2 60 -20 60 -17 0 -20 7 -20 40 0 33 -3 40 -20 40 -18 0
-20 7 -20 60 0 53 -2 60 -20 60 -18 0 -20 7 -20 80 0 73 -2 80 -20 80 -18 0
-20 7 -20 60 0 53 -2 60 -20 60 -18 0 -20 7 -20 80 0 73 -2 80 -20 80 -18 0
-20 7 -20 60 0 53 -2 60 -20 60 -13 0 -20 7 -20 20 0 13 -7 20 -20 20 -13 0
-20 7 -20 20 0 17 -7 20 -40 20 -33 0 -40 3 -40 20 0 18 -7 20 -60 20 -53 0
-60 2 -60 20 0 18 -7 20 -60 20 -53 0 -60 2 -60 20 0 17 -7 20 -40 20 -33 0
-40 3 -40 20 0 18 -7 20 -60 20 -53 0 -60 2 -60 20 0 18 -7 20 -60 20 -53 0
-60 2 -60 20 0 13 -7 20 -20 20 -13 0 -20 7 -20 20 0 17 -7 20 -40 20 l-40 0
0 60 c0 53 -2 60 -20 60 -20 0 -20 7 -20 480 0 473 0 480 20 480 18 0 20 7 20
60 0 53 2 60 20 60 13 0 20 7 20 20 0 18 7 20 60 20 53 0 60 2 60 20 0 17 7
20 40 20 33 0 40 3 40 20 0 17 7 20 40 20 33 0 40 3 40 20 0 18 7 20 60 20 53
0 60 2 60 20 0 18 7 20 60 20 53 0 60 2 60 20 0 18 7 20 60 20 53 0 60 2 60
20 0 17 7 20 40 20 33 0 40 3 40 20 0 13 7 20 20 20 13 0 20 7 20 20 0 13 7
20 20 20 18 0 20 7 20 60 0 53 2 60 20 60 18 0 20 7 20 80 0 73 2 80 20 80 18
0 20 7 20 80 0 73 2 80 20 80 18 0 20 7 20 60 0 53 2 60 20 60 17 0 20 7 20
40 0 33 3 40 20 40 18 0 20 7 20 60 0 53 2 60 20 60 18 0 20 7 20 60 0 53 2
60 20 60 17 0 20 7 20 40 0 33 3 40 20 40 18 0 20 7 20 60 0 53 2 60 20 60 17
0 20 7 20 40 0 33 3 40 20 40 13 0 20 7 20 20 0 13 7 20 20 20 17 0 20 7 20
40 0 33 3 40 20 40 17 0 20 7 20 40 0 33 3 40 20 40 17 0 20 7 20 40 0 33 3
40 20 40 17 0 20 7 20 40 0 33 3 40 20 40 13 0 20 7 20 20 0 13 7 20 20 20 17
0 20 7 20 40 0 33 3 40 20 40 17 0 20 7 20 40 0 33 3 40 20 40 17 0 20 7 20
40 0 33 -3 40 -20 40 -18 0 -20 7 -20 60 0 53 -2 60 -20 60 -17 0 -20 7 -20
40 0 33 -3 40 -20 40 -17 0 -20 7 -20 40 0 33 -3 40 -20 40 -17 0 -20 7 -20
40 0 33 -3 40 -20 40 -18 0 -20 7 -20 60 0 53 -2 60 -20 60 -17 0 -20 7 -20
40 0 33 -3 40 -20 40 -17 0 -20 7 -20 40 0 33 -3 40 -20 40 -19 0 -20 7 -20
100 0 93 1 100 20 100 13 0 20 7 20 20 0 13 7 20 20 20 13 0 20 7 20 20 0 13
7 20 20 20 13 0 20 7 20 20 0 13 7 20 20 20 13 0 20 7 20 20 0 13 7 20 20 20
13 0 20 7 20 20 0 13 7 20 20 20 13 0 20 7 20 20 0 13 7 20 20 20 13 0 20 7
20 20 0 13 7 20 20 20 13 0 20 7 20 20 0 13 7 20 20 20 13 0 20 7 20 20 0 13
7 20 20 20 13 0 20 7 20 20 0 13 7 20 20 20 13 0 20 7 20 20 0 13 7 20 20 20
13 0 20 7 20 20 0 13 7 20 20 20 13 0 20 7 20 20 0 13 7 20 20 20 13 0 20 7
20 20 0 13 7 20 20 20 13 0 20 7 20 20 0 13 7 20 20 20 13 0 20 7 20 20 0 13
7 20 20 20 13 0 20 7 20 20 0 13 7 20 20 20 13 0 20 7 20 20 0 13 7 20 20 20
13 0 20 7 20 20 0 18 7 20 60 20 53 0 60 -2 60 -20 0 -18 7 -20 60 -20 53 0
60 -2 60 -20 0 -17 7 -20 40 -20 33 0 40 -3 40 -20 0 -18 7 -20 60 -20 53 0
60 -2 60 -20 0 -17 7 -20 40 -20 33 0 40 -3 40 -20 0 -17 7 -20 40 -20 33 0
40 -3 40 -20 0 -18 7 -20 60 -20 53 0 60 -2 60 -20 0 -17 7 -20 40 -20 33 0
40 -3 40 -20 0 -18 7 -20 60 -20 53 0 60 2 60 20 0 17 7 20 40 20 33 0 40 3
40 20 0 13 7 20 20 20 13 0 20 7 20 20 0 17 7 20 40 20 33 0 40 3 40 20 0 17
7 20 40 20 33 0 40 3 40 20 0 17 7 20 40 20 33 0 40 3 40 20 0 17 7 20 40 20
33 0 40 3 40 20 0 17 7 20 40 20 33 0 40 3 40 20 0 17 7 20 40 20 33 0 40 3
40 20 0 17 7 20 40 20 33 0 40 3 40 20 0 17 7 20 40 20 33 0 40 3 40 20 0 18
7 20 60 20 53 0 60 2 60 20 0 17 7 20 40 20 33 0 40 3 40 20 0 18 7 20 60 20
53 0 60 2 60 20 0 18 7 20 60 20 53 0 60 2 60 20 0 18 7 20 60 20 53 0 60 2
60 20 0 18 7 20 80 20 73 0 80 2 80 20 0 18 7 20 80 20 73 0 80 2 80 20 0 17
7 20 40 20 33 0 40 3 40 20 0 13 7 20 20 20 13 0 20 7 20 20 0 13 7 20 20 20
18 0 20 7 20 60 0 53 2 60 20 60 17 0 20 7 20 40 0 33 3 40 20 40 18 0 20 7
20 60 0 53 2 60 20 60 18 0 20 7 20 60 0 53 2 60 20 60 17 0 20 7 20 40 0 33
3 40 20 40 18 0 20 7 20 60 0 53 2 60 20 60 17 0 20 7 20 40 0 33 3 40 20 40
13 0 20 7 20 20 0 20 7 20 580 20 573 0 580 0 580 -20 0 -13 7 -20 20 -20 13
0 20 -7 20 -20 0 -13 7 -20 20 -20 18 0 20 -7 20 -60 0 -53 2 -60 20 -60 17 0
20 -7 20 -40 0 -33 3 -40 20 -40 18 0 20 -7 20 -60 0 -53 2 -60 20 -60 17 0
20 -7 20 -40 0 -33 3 -40 20 -40 18 0 20 -7 20 -60 0 -53 2 -60 20 -60 18 0
20 -7 20 -60 0 -53 2 -60 20 -60 17 0 20 -7 20 -40 0 -33 3 -40 20 -40 13 0
20 -7 20 -20 0 -17 7 -20 40 -20 33 0 40 -3 40 -20 0 -18 7 -20 80 -20 73 0
80 -2 80 -20 0 -18 7 -20 80 -20 73 0 80 -2 80 -20 0 -18 7 -20 80 -20 73 0
80 -2 80 -20 0 -17 7 -20 40 -20 33 0 40 -3 40 -20 0 -18 7 -20 60 -20 53 0
60 -2 60 -20 0 -18 7 -20 60 -20 53 0 60 -2 60 -20 0 -17 7 -20 40 -20 33 0
40 -3 40 -20 0 -18 7 -20 60 -20 53 0 60 -2 60 -20 0 -13 7 -20 20 -20 13 0
20 -7 20 -20 0 -18 7 -20 60 -20 53 0 60 -2 60 -20 0 -13 7 -20 20 -20 13 0
20 -7 20 -20 0 -18 7 -20 60 -20 53 0 60 -2 60 -20 0 -13 7 -20 20 -20 13 0
20 -7 20 -20 0 -17 7 -20 40 -20 33 0 40 -3 40 -20 0 -17 7 -20 40 -20 33 0
40 -3 40 -20 0 -17 7 -20 40 -20 33 0 40 -3 40 -20 0 -13 7 -20 20 -20 13 0
20 -7 20 -20 0 -18 7 -20 80 -20 73 0 80 2 80 20 0 17 7 20 40 20 33 0 40 3
40 20 0 17 7 20 40 20 33 0 40 3 40 20 0 18 7 20 60 20 53 0 60 2 60 20 0 17
7 20 40 20 33 0 40 3 40 20 0 17 7 20 40 20 33 0 40 3 40 20 0 18 7 20 60 20
53 0 60 2 60 20 0 17 7 20 40 20 33 0 40 3 40 20 0 18 7 20 60 20 53 0 60 -2
60 -20 0 -17 7 -20 40 -20 33 0 40 -3 40 -20 0 -13 7 -20 20 -20 13 0 20 -7
20 -20 0 -13 7 -20 20 -20 13 0 20 -7 20 -20 0 -13 7 -20 20 -20 13 0 20 -7
20 -20 0 -13 7 -20 20 -20 13 0 20 -7 20 -20 0 -13 7 -20 20 -20 13 0 20 -7
20 -20 0 -13 7 -20 20 -20 13 0 20 -7 20 -20 0 -13 7 -20 20 -20 13 0 20 -7
20 -20 0 -13 7 -20 20 -20 13 0 20 -7 20 -20 0 -13 7 -20 20 -20 13 0 20 -7
20 -20 0 -13 7 -20 20 -20 13 0 20 -7 20 -20 0 -13 7 -20 20 -20 13 0 20 -7
20 -20 0 -13 7 -20 20 -20 13 0 20 -7 20 -20 0 -13 7 -20 20 -20 13 0 20 -7
20 -20 0 -13 7 -20 20 -20 13 0 20 -7 20 -20 0 -13 7 -20 20 -20 13 0 20 -7
20 -20 0 -13 7 -20 20 -20 17 0 20 -7 20 -40 0 -33 3 -40 20 -40 17 0 20 -7
20 -40 0 -33 3 -40 20 -40 13 0 20 -7 20 -20 0 -13 -7 -20 -20 -20 -18 0 -20
-7 -20 -60 0 -53 -2 -60 -20 -60 -17 0 -20 -7 -20 -40 0 -33 -3 -40 -20 -40
-18 0 -20 -7 -20 -60 0 -53 -2 -60 -20 -60 -17 0 -20 -7 -20 -40 0 -33 -3 -40
-20 -40 -17 0 -20 -7 -20 -40 0 -33 -3 -40 -20 -40 -17 0 -20 -7 -20 -40 0
-33 -3 -40 -20 -40 -18 0 -20 -7 -20 -60 0 -53 -2 -60 -20 -60 -18 0 -20 -7
-20 -80 0 -73 2 -80 20 -80 13 0 20 -7 20 -20 0 -19 7 -20 200 -20 l200 0 0
40 c0 33 -3 40 -20 40 -18 0 -20 7 -20 80 0 73 2 80 20 80 17 0 20 7 20 40 0
33 3 40 20 40 17 0 20 7 20 40 0 33 3 40 20 40 17 0 20 7 20 40 0 33 3 40 20
40 18 0 20 7 20 60 0 53 2 60 20 60 17 0 20 7 20 40 0 33 3 40 20 40 17 0 20
7 20 40 0 33 3 40 20 40 19 0 20 7 20 140 0 133 -1 140 -20 140 -17 0 -20 7
-20 40 0 33 -3 40 -20 40 -17 0 -20 7 -20 40 0 33 -3 40 -20 40 -13 0 -20 7
-20 20 0 13 -7 20 -20 20 -17 0 -20 7 -20 40 l0 40 -40 0 c-33 0 -40 3 -40 20
0 13 -7 20 -20 20 -13 0 -20 7 -20 20 0 13 -7 20 -20 20 -13 0 -20 7 -20 20 0
13 -7 20 -20 20 -13 0 -20 7 -20 20 0 13 -7 20 -20 20 -17 0 -20 7 -20 40 0
33 -3 40 -20 40 -13 0 -20 7 -20 20 0 13 -7 20 -20 20 -13 0 -20 7 -20 20 0
17 -7 20 -40 20 -33 0 -40 3 -40 20 0 13 -7 20 -20 20 -13 0 -20 7 -20 20 0
13 -7 20 -20 20 -17 0 -20 7 -20 40 0 33 -3 40 -20 40 -13 0 -20 7 -20 20 0
13 -7 20 -20 20 -13 0 -20 7 -20 20 0 13 -7 20 -20 20 -13 0 -20 7 -20 20 0
17 -7 20 -40 20 -33 0 -40 3 -40 20 0 13 -7 20 -20 20 -13 0 -20 7 -20 20 0
13 -7 20 -20 20 -13 0 -20 7 -20 20 0 17 -7 20 -40 20 -33 0 -40 3 -40 20 0
18 -7 20 -60 20 -53 0 -60 2 -60 20 0 19 -7 20 -120 20 -113 0 -120 -1 -120
-20 0 -18 -7 -20 -60 -20 -53 0 -60 -2 -60 -20 0 -17 -7 -20 -40 -20 -33 0
-40 -3 -40 -20 0 -17 -7 -20 -40 -20 -33 0 -40 -3 -40 -20 0 -17 -7 -20 -40
-20 -33 0 -40 -3 -40 -20 0 -18 -7 -20 -60 -20 -53 0 -60 -2 -60 -20 0 -17 -7
-20 -40 -20 -33 0 -40 -3 -40 -20 0 -18 -7 -20 -60 -20 -53 0 -60 2 -60 20 0
17 -7 20 -40 20 -33 0 -40 3 -40 20 0 17 -7 20 -40 20 -33 0 -40 3 -40 20 0
17 -7 20 -40 20 -33 0 -40 3 -40 20 0 13 -7 20 -20 20 -13 0 -20 7 -20 20 0
17 -7 20 -40 20 -33 0 -40 3 -40 20 0 18 -7 20 -60 20 -53 0 -60 2 -60 20 0
17 -7 20 -40 20 -33 0 -40 3 -40 20 0 17 -7 20 -40 20 -33 0 -40 3 -40 20 0
17 -7 20 -40 20 -33 0 -40 3 -40 20 0 18 -7 20 -60 20 -53 0 -60 2 -60 20 0
18 -7 20 -60 20 -53 0 -60 2 -60 20 0 17 -7 20 -40 20 -33 0 -40 3 -40 20 0
18 -7 20 -60 20 -53 0 -60 2 -60 20 0 18 -7 20 -80 20 -73 0 -80 2 -80 20 0
18 -7 20 -60 20 -53 0 -60 2 -60 20 0 17 -7 20 -40 20 l-40 0 0 40 c0 33 -3
40 -20 40 -18 0 -20 7 -20 60 0 53 -2 60 -20 60 -18 0 -20 7 -20 60 0 53 -2
60 -20 60 -17 0 -20 7 -20 40 0 33 -3 40 -20 40 -18 0 -20 7 -20 60 0 53 -2
60 -20 60 -17 0 -20 7 -20 40 0 33 -3 40 -20 40 -17 0 -20 7 -20 40 0 33 -3
40 -20 40 -13 0 -20 7 -20 20 0 13 -7 20 -20 20 -13 0 -20 7 -20 20 0 13 -7
20 -20 20 -13 0 -20 7 -20 20 0 17 -7 20 -40 20 -33 0 -40 3 -40 20 0 17 -7
20 -40 20 -33 0 -40 3 -40 20 0 20 -7 20 -640 20 -633 0 -640 0 -640 -20z
M5960 9380 c0 -19 -7 -20 -160 -20 -153 0 -160 -1 -160 -20 0 -18 -7 -20 -80
-20 -73 0 -80 -2 -80 -20 0 -18 -7 -20 -80 -20 -73 0 -80 -2 -80 -20 0 -18 -7
-20 -80 -20 -73 0 -80 -2 -80 -20 0 -17 -7 -20 -40 -20 -33 0 -40 -3 -40 -20
0 -18 -7 -20 -60 -20 -53 0 -60 -2 -60 -20 0 -17 -7 -20 -40 -20 -33 0 -40 -3
-40 -20 0 -17 -7 -20 -40 -20 -33 0 -40 -3 -40 -20 0 -17 -7 -20 -40 -20 -33
0 -40 -3 -40 -20 0 -17 -7 -20 -40 -20 -33 0 -40 -3 -40 -20 0 -17 -7 -20 -40
-20 -33 0 -40 -3 -40 -20 0 -13 -7 -20 -20 -20 -13 0 -20 -7 -20 -20 0 -17 -7
-20 -40 -20 -33 0 -40 -3 -40 -20 0 -13 -7 -20 -20 -20 -13 0 -20 -7 -20 -20
0 -17 -7 -20 -40 -20 -33 0 -40 -3 -40 -20 0 -13 -7 -20 -20 -20 -13 0 -20 -7
-20 -20 0 -13 -7 -20 -20 -20 -13 0 -20 -7 -20 -20 0 -17 -7 -20 -40 -20 -33
0 -40 -3 -40 -20 0 -13 -7 -20 -20 -20 -13 0 -20 -7 -20 -20 0 -13 -7 -20 -20
-20 -13 0 -20 -7 -20 -20 0 -13 -7 -20 -20 -20 -13 0 -20 -7 -20 -20 0 -13 -7
-20 -20 -20 -13 0 -20 -7 -20 -20 0 -13 -7 -20 -20 -20 -13 0 -20 -7 -20 -20
0 -13 -7 -20 -20 -20 -13 0 -20 -7 -20 -20 0 -13 -7 -20 -20 -20 -13 0 -20 -7
-20 -20 0 -13 -7 -20 -20 -20 -13 0 -20 -7 -20 -20 0 -13 -7 -20 -20 -20 -13
0 -20 -7 -20 -20 0 -13 -7 -20 -20 -20 -13 0 -20 -7 -20 -20 0 -13 -7 -20 -20
-20 -17 0 -20 -7 -20 -40 0 -33 -3 -40 -20 -40 -13 0 -20 -7 -20 -20 0 -13 -7
-20 -20 -20 -13 0 -20 -7 -20 -20 0 -13 -7 -20 -20 -20 -17 0 -20 -7 -20 -40
0 -33 -3 -40 -20 -40 -13 0 -20 -7 -20 -20 0 -13 -7 -20 -20 -20 -17 0 -20 -7
-20 -40 0 -33 -3 -40 -20 -40 -17 0 -20 -7 -20 -40 0 -33 -3 -40 -20 -40 -13
0 -20 -7 -20 -20 0 -13 -7 -20 -20 -20 -17 0 -20 -7 -20 -40 0 -33 -3 -40 -20
-40 -17 0 -20 -7 -20 -40 0 -33 -3 -40 -20 -40 -18 0 -20 -7 -20 -60 0 -53 -2
-60 -20 -60 -17 0 -20 -7 -20 -40 0 -33 -3 -40 -20 -40 -17 0 -20 -7 -20 -40
0 -33 -3 -40 -20 -40 -18 0 -20 -7 -20 -60 0 -53 -2 -60 -20 -60 -18 0 -20 -7
-20 -60 0 -53 -2 -60 -20 -60 -18 0 -20 -7 -20 -80 0 -73 -2 -80 -20 -80 -19
0 -20 -7 -20 -120 0 -113 -1 -120 -20 -120 -20 0 -20 -7 -20 -420 0 -413 0
-420 20 -420 19 0 20 -7 20 -140 0 -133 1 -140 20 -140 18 0 20 -7 20 -80 0
-73 2 -80 20 -80 18 0 20 -7 20 -60 0 -53 2 -60 20 -60 18 0 20 -7 20 -60 0
-53 2 -60 20 -60 17 0 20 -7 20 -40 0 -33 3 -40 20 -40 18 0 20 -7 20 -60 0
-53 2 -60 20 -60 17 0 20 -7 20 -40 0 -33 3 -40 20 -40 17 0 20 -7 20 -40 0
-33 3 -40 20 -40 17 0 20 -7 20 -40 0 -33 3 -40 20 -40 13 0 20 -7 20 -20 0
-13 7 -20 20 -20 17 0 20 -7 20 -40 0 -33 3 -40 20 -40 17 0 20 -7 20 -40 0
-33 3 -40 20 -40 13 0 20 -7 20 -20 0 -13 7 -20 20 -20 17 0 20 -7 20 -40 0
-33 3 -40 20 -40 13 0 20 -7 20 -20 0 -13 7 -20 20 -20 17 0 20 -7 20 -40 0
-33 3 -40 20 -40 13 0 20 -7 20 -20 0 -13 7 -20 20 -20 13 0 20 -7 20 -20 0
-13 7 -20 20 -20 13 0 20 -7 20 -20 0 -13 7 -20 20 -20 13 0 20 -7 20 -20 0
-13 7 -20 20 -20 13 0 20 -7 20 -20 0 -13 7 -20 20 -20 13 0 20 -7 20 -20 0
-13 7 -20 20 -20 13 0 20 -7 20 -20 0 -13 7 -20 20 -20 13 0 20 -7 20 -20 0
-13 7 -20 20 -20 13 0 20 -7 20 -20 0 -13 7 -20 20 -20 13 0 20 -7 20 -20 0
-13 7 -20 20 -20 13 0 20 -7 20 -20 0 -13 7 -20 20 -20 13 0 20 -7 20 -20 0
-13 7 -20 20 -20 13 0 20 -7 20 -20 0 -13 7 -20 20 -20 13 0 20 -7 20 -20 0
-17 7 -20 40 -20 33 0 40 -3 40 -20 0 -13 7 -20 20 -20 13 0 20 -7 20 -20 0
-13 7 -20 20 -20 13 0 20 -7 20 -20 0 -17 7 -20 40 -20 33 0 40 -3 40 -20 0
-17 7 -20 40 -20 33 0 40 -3 40 -20 0 -13 7 -20 20 -20 13 0 20 -7 20 -20 0
-17 7 -20 40 -20 33 0 40 -3 40 -20 0 -17 7 -20 40 -20 33 0 40 -3 40 -20 0
-17 7 -20 40 -20 33 0 40 -3 40 -20 0 -17 7 -20 40 -20 33 0 40 -3 40 -20 0
-18 7 -20 60 -20 53 0 60 -2 60 -20 0 -18 7 -20 60 -20 53 0 60 -2 60 -20 0
-17 7 -20 40 -20 33 0 40 -3 40 -20 0 -18 7 -20 60 -20 53 0 60 -2 60 -20 0
-18 7 -20 80 -20 73 0 80 -2 80 -20 0 -19 7 -20 120 -20 113 0 120 -1 120 -20
0 -20 7 -20 440 -20 433 0 440 0 440 20 0 19 7 20 100 20 93 0 100 1 100 20 0
18 7 20 80 20 73 0 80 2 80 20 0 18 7 20 60 20 53 0 60 2 60 20 0 18 7 20 60
20 53 0 60 2 60 20 0 18 7 20 60 20 53 0 60 2 60 20 0 17 7 20 40 20 33 0 40
3 40 20 0 18 7 20 60 20 53 0 60 2 60 20 0 17 7 20 40 20 33 0 40 3 40 20 0
17 7 20 40 20 33 0 40 3 40 20 0 13 7 20 20 20 13 0 20 7 20 20 0 17 7 20 40
20 33 0 40 3 40 20 0 20 -7 20 -400 20 -393 0 -400 0 -400 -20 0 -18 -7 -20
-80 -20 -73 0 -80 -2 -80 -20 0 -18 -7 -20 -60 -20 -53 0 -60 -2 -60 -20 0
-19 -7 -20 -100 -20 -93 0 -100 -1 -100 -20 0 -20 -7 -20 -380 -20 -373 0
-380 0 -380 20 0 19 -7 20 -120 20 -113 0 -120 1 -120 20 0 18 -7 20 -80 20
-73 0 -80 2 -80 20 0 18 -7 20 -60 20 -53 0 -60 2 -60 20 0 18 -7 20 -60 20
-53 0 -60 2 -60 20 0 17 -7 20 -40 20 -33 0 -40 3 -40 20 0 17 -7 20 -40 20
-33 0 -40 3 -40 20 0 17 -7 20 -40 20 -33 0 -40 3 -40 20 0 13 -7 20 -20 20
-13 0 -20 7 -20 20 0 17 -7 20 -40 20 -33 0 -40 3 -40 20 0 17 -7 20 -40 20
-33 0 -40 3 -40 20 0 13 -7 20 -20 20 -13 0 -20 7 -20 20 0 17 -7 20 -40 20
-33 0 -40 3 -40 20 0 13 -7 20 -20 20 -13 0 -20 7 -20 20 0 13 -7 20 -20 20
-13 0 -20 7 -20 20 0 17 -7 20 -40 20 -33 0 -40 3 -40 20 0 13 -7 20 -20 20
-13 0 -20 7 -20 20 0 13 -7 20 -20 20 -13 0 -20 7 -20 20 0 13 -7 20 -20 20
-13 0 -20 7 -20 20 0 13 -7 20 -20 20 -13 0 -20 7 -20 20 0 13 -7 20 -20 20
-13 0 -20 7 -20 20 0 13 -7 20 -20 20 -13 0 -20 7 -20 20 0 13 -7 20 -20 20
-13 0 -20 7 -20 20 0 13 -7 20 -20 20 -13 0 -20 7 -20 20 0 13 -7 20 -20 20
-17 0 -20 7 -20 40 0 33 -3 40 -20 40 -13 0 -20 7 -20 20 0 13 -7 20 -20 20
-13 0 -20 7 -20 20 0 13 -7 20 -20 20 -13 0 -20 7 -20 20 0 13 -7 20 -20 20
-17 0 -20 7 -20 40 0 33 -3 40 -20 40 -13 0 -20 7 -20 20 0 13 -7 20 -20 20
-17 0 -20 7 -20 40 0 33 -3 40 -20 40 -17 0 -20 7 -20 40 0 33 -3 40 -20 40
-13 0 -20 7 -20 20 0 13 -7 20 -20 20 -17 0 -20 7 -20 40 0 33 -3 40 -20 40
-17 0 -20 7 -20 40 0 33 -3 40 -20 40 -17 0 -20 7 -20 40 0 33 -3 40 -20 40
-18 0 -20 7 -20 60 0 53 -2 60 -20 60 -18 0 -20 7 -20 60 0 53 -2 60 -20 60
-18 0 -20 7 -20 80 0 73 -2 80 -20 80 -18 0 -20 7 -20 60 0 53 -2 60 -20 60
-19 0 -20 7 -20 140 0 133 -1 140 -20 140 -20 0 -20 7 -20 340 0 333 0 340 20
340 19 0 20 7 20 120 0 113 1 120 20 120 18 0 20 7 20 80 0 73 2 80 20 80 18
0 20 7 20 60 0 53 2 60 20 60 18 0 20 7 20 60 0 53 2 60 20 60 18 0 20 7 20
60 0 53 2 60 20 60 17 0 20 7 20 40 0 33 3 40 20 40 17 0 20 7 20 40 0 33 3
40 20 40 17 0 20 7 20 40 0 33 3 40 20 40 13 0 20 7 20 20 0 13 7 20 20 20 17
0 20 7 20 40 0 33 3 40 20 40 13 0 20 7 20 20 0 13 7 20 20 20 17 0 20 7 20
40 0 33 3 40 20 40 13 0 20 7 20 20 0 13 7 20 20 20 13 0 20 7 20 20 0 13 7
20 20 20 17 0 20 7 20 40 0 33 3 40 20 40 13 0 20 7 20 20 0 13 7 20 20 20 13
0 20 7 20 20 0 13 7 20 20 20 13 0 20 7 20 20 0 13 7 20 20 20 13 0 20 7 20
20 0 13 7 20 20 20 13 0 20 7 20 20 0 13 7 20 20 20 13 0 20 7 20 20 0 13 7
20 20 20 13 0 20 7 20 20 0 13 7 20 20 20 13 0 20 7 20 20 0 13 7 20 20 20 13
0 20 7 20 20 0 13 7 20 20 20 13 0 20 7 20 20 0 13 7 20 20 20 13 0 20 7 20
20 0 13 7 20 20 20 13 0 20 7 20 20 0 17 7 20 40 20 33 0 40 3 40 20 0 13 7
20 20 20 13 0 20 7 20 20 0 17 7 20 40 20 33 0 40 3 40 20 0 13 7 20 20 20 13
0 20 7 20 20 0 17 7 20 40 20 33 0 40 3 40 20 0 17 7 20 40 20 33 0 40 3 40
20 0 17 7 20 40 20 33 0 40 3 40 20 0 17 7 20 40 20 33 0 40 3 40 20 0 17 7
20 40 20 33 0 40 3 40 20 0 17 7 20 40 20 33 0 40 3 40 20 0 18 7 20 60 20 53
0 60 2 60 20 0 18 7 20 60 20 53 0 60 2 60 20 0 18 7 20 80 20 73 0 80 2 80
20 0 19 7 20 120 20 113 0 120 1 120 20 0 20 7 20 340 20 333 0 340 0 340 -20
0 -19 7 -20 120 -20 113 0 120 -1 120 -20 0 -19 7 -20 100 -20 93 0 100 -1
100 -20 0 -18 7 -20 60 -20 53 0 60 -2 60 -20 0 -18 7 -20 60 -20 53 0 60 -2
60 -20 0 -20 7 -20 380 -20 373 0 380 0 380 20 0 17 -7 20 -40 20 -33 0 -40 3
-40 20 0 17 -7 20 -40 20 -33 0 -40 3 -40 20 0 13 -7 20 -20 20 -13 0 -20 7
-20 20 0 17 -7 20 -40 20 -33 0 -40 3 -40 20 0 17 -7 20 -40 20 -33 0 -40 3
-40 20 0 17 -7 20 -40 20 -33 0 -40 3 -40 20 0 17 -7 20 -40 20 -33 0 -40 3
-40 20 0 18 -7 20 -60 20 -53 0 -60 2 -60 20 0 18 -7 20 -60 20 -53 0 -60 2
-60 20 0 18 -7 20 -60 20 -53 0 -60 2 -60 20 0 18 -7 20 -80 20 -73 0 -80 2
-80 20 0 19 -7 20 -100 20 -93 0 -100 1 -100 20 0 19 -7 20 -140 20 -133 0
-140 1 -140 20 0 19 -7 20 -240 20 -233 0 -240 -1 -240 -20z"/>
</g>
</svg>
