<svg xmlns="http://www.w3.org/2000/svg" width="3840" height="2160" viewBox="0 0 3840 2160">
  <title>Boswas Ocean dark wallpaper</title>
  <!-- Generated by desktop/presets/tools/build_presets.py from presets.json; do not edit by hand. -->
  <defs>
    <linearGradient id="w-lin1" gradientUnits="userSpaceOnUse" x1="0" y1="0" x2="3840" y2="2160"><stop offset="0" stop-color="#040C1A"/><stop offset="0.55" stop-color="#0A1C36"/><stop offset="1" stop-color="#0E2848"/></linearGradient>
    <radialGradient id="w-rad2" gradientUnits="userSpaceOnUse" cx="2920" cy="760" r="1500"><stop offset="0" stop-color="#57A8EA" stop-opacity="0.1"/><stop offset="0.5" stop-color="#57A8EA" stop-opacity="0.03"/><stop offset="1" stop-color="#57A8EA" stop-opacity="0"/></radialGradient>
    <radialGradient id="w-rad3" gradientUnits="userSpaceOnUse" cx="420" cy="2220" r="1700"><stop offset="0" stop-color="#123A66" stop-opacity="0.4"/><stop offset="1" stop-color="#123A66" stop-opacity="0"/></radialGradient>
    <linearGradient id="w-lin4" gradientUnits="userSpaceOnUse" x1="2382.52" y1="70" x2="2473.22" y2="1016.88"><stop offset="0" stop-color="#A9D6FA" stop-opacity="0.07"/><stop offset="1" stop-color="#A9D6FA" stop-opacity="0"/></linearGradient>
    <filter id="w-blur5" filterUnits="userSpaceOnUse" x="-112" y="-112" width="4064" height="2384"><feGaussianBlur stdDeviation="28"/></filter>
    <linearGradient id="w-lin6" gradientUnits="userSpaceOnUse" x1="2382.52" y1="70" x2="2382.52" y2="1016.88"><stop offset="0" stop-color="#A9D6FA" stop-opacity="0.16"/><stop offset="0.55" stop-color="#A9D6FA" stop-opacity="0.06"/><stop offset="1" stop-color="#A9D6FA" stop-opacity="0"/></linearGradient>
    <linearGradient id="w-lin7" gradientUnits="userSpaceOnUse" x1="0" y1="1410" x2="0" y2="2160"><stop offset="0" stop-color="#123A66" stop-opacity="0.55"/><stop offset="1" stop-color="#123A66" stop-opacity="0.47"/></linearGradient>
    <linearGradient id="w-lin8" gradientUnits="userSpaceOnUse" x1="0" y1="0" x2="3840" y2="0"><stop offset="0" stop-color="#57A8EA" stop-opacity="0"/><stop offset="0.45" stop-color="#A9D6FA" stop-opacity="0.32"/><stop offset="1" stop-color="#57A8EA" stop-opacity="0"/></linearGradient>
    <linearGradient id="w-lin9" gradientUnits="userSpaceOnUse" x1="0" y1="1600" x2="0" y2="2160"><stop offset="0" stop-color="#0D2D52" stop-opacity="0.75"/><stop offset="1" stop-color="#0D2D52" stop-opacity="0.64"/></linearGradient>
    <linearGradient id="w-lin10" gradientUnits="userSpaceOnUse" x1="0" y1="0" x2="3840" y2="0"><stop offset="0" stop-color="#57A8EA" stop-opacity="0"/><stop offset="0.45" stop-color="#A9D6FA" stop-opacity="0.26"/><stop offset="1" stop-color="#57A8EA" stop-opacity="0"/></linearGradient>
    <linearGradient id="w-lin11" gradientUnits="userSpaceOnUse" x1="0" y1="1790" x2="0" y2="2160"><stop offset="0" stop-color="#0A2142" stop-opacity="0.92"/><stop offset="1" stop-color="#0A2142" stop-opacity="0.78"/></linearGradient>
    <linearGradient id="w-lin12" gradientUnits="userSpaceOnUse" x1="0" y1="0" x2="3840" y2="0"><stop offset="0" stop-color="#57A8EA" stop-opacity="0"/><stop offset="0.45" stop-color="#A9D6FA" stop-opacity="0.2"/><stop offset="1" stop-color="#57A8EA" stop-opacity="0"/></linearGradient>
    <linearGradient id="w-lin13" gradientUnits="userSpaceOnUse" x1="2572.66" y1="633.58" x2="3058.47" y2="417.28"><stop offset="0" stop-color="#57A8EA" stop-opacity="0"/><stop offset="0.7" stop-color="#57A8EA" stop-opacity="0.55"/><stop offset="1" stop-color="#A9D6FA" stop-opacity="0.95"/></linearGradient>
    <radialGradient id="w-rad14" gradientUnits="userSpaceOnUse" cx="3058.47" cy="417.28" r="119"><stop offset="0" stop-color="#A9D6FA" stop-opacity="0.45"/><stop offset="1" stop-color="#A9D6FA" stop-opacity="0"/></radialGradient>
    <linearGradient id="w-lin15" gradientUnits="userSpaceOnUse" x1="3628.85" y1="990.32" x2="3437.75" y2="1296.14"><stop offset="0" stop-color="#57A8EA" stop-opacity="0"/><stop offset="0.5" stop-color="#A9D6FA" stop-opacity="0.4"/><stop offset="1" stop-color="#57A8EA" stop-opacity="0"/></linearGradient>
  </defs>
  <rect width="3840" height="2160" fill="url(#w-lin1)"/>
  <rect width="3840" height="2160" fill="url(#w-rad2)"/>
  <rect width="3840" height="2160" fill="url(#w-rad3)"/>
  <path d="M2382.52 70A302.33 265.13 0 0 1 2684.85 335.13L2684.85 1016.88A302.33 303 0 0 1 2382.52 713.88Z" fill="url(#w-lin4)" filter="url(#w-blur5)"/>
  <path d="M2382.52 70A302.33 265.13 0 0 1 2684.85 335.13L2684.85 1016.88A302.33 303 0 0 1 2382.52 713.88Z" fill="none" stroke="url(#w-lin6)" stroke-width="3"/>
  <g fill="none" stroke="#BFD9F2"><circle cx="2920" cy="760" r="260.31" stroke-opacity="0.07" stroke-width="3"/><circle cx="2920" cy="760" r="369.63" stroke-opacity="0.06" stroke-width="3"/><circle cx="2920" cy="760" r="524.88" stroke-opacity="0.04" stroke-width="3"/><circle cx="2920" cy="760" r="745.33" stroke-opacity="0.03" stroke-width="3"/><circle cx="2920" cy="760" r="1058.37" stroke-opacity="0.02" stroke-width="3"/></g>
  <path d="M0 1605C700 1410 1500 1410 2200 1560S3300 1650 3840 1485V2160H0Z" fill="url(#w-lin7)"/>
  <path d="M0 1605C700 1410 1500 1410 2200 1560S3300 1650 3840 1485" fill="none" stroke="url(#w-lin8)" stroke-width="3"/>
  <path d="M0 1756C880 1600 1770 1600 2380 1720S3390 1792 3840 1660V2160H0Z" fill="url(#w-lin9)"/>
  <path d="M0 1756C880 1600 1770 1600 2380 1720S3390 1792 3840 1660" fill="none" stroke="url(#w-lin10)" stroke-width="3"/>
  <path d="M0 1907C784 1790 1626 1790 2284 1880S3342 1934 3840 1835V2160H0Z" fill="url(#w-lin11)"/>
  <path d="M0 1907C784 1790 1626 1790 2284 1880S3342 1934 3840 1835" fill="none" stroke="url(#w-lin12)" stroke-width="3"/>
  <path d="M2572.66 633.58A369.63 369.63 0 0 1 3058.47 417.28" fill="none" stroke="url(#w-lin13)" stroke-width="6" stroke-linecap="round"/>
  <circle cx="3058.47" cy="417.28" r="119" fill="url(#w-rad14)"/>
  <circle cx="3058.47" cy="417.28" r="17" fill="#A9D6FA" fill-opacity="1"/>
  <path d="M3628.85 990.32A745.33 745.33 0 0 1 3437.75 1296.14" fill="none" stroke="url(#w-lin15)" stroke-width="3" stroke-linecap="round"/>
  <image x="2738.63" y="498.35" width="354.02" height="440" href="../../../branding/boswas-os-mark.svg" opacity="0.14"/>
</svg>
